# xmcd
#
# Track frame offsets:
#	150
#	11530
#	23844
#	33360
#	46472
#	59247
#	68995
#	81007
#	91185
#	102654
#	112822
#	123570
#	134182
#	146072
#	157475
#	167917
#	179847
#	191842
#	201962
#	214387
#
# Disc length: 3024 seconds
#
# Revision: 0
# Processed by: cddbd v1.5.1PL2 Copyright (c) Steve Scherf et al.
# Submitted via: dBpowerAMP V4.0
#
DISCID=410bce14
DTITLE=Johnny Tillotson - The Very Best Of Johnny Tillotson (Asian Edition)
DYEAR=1900
DGENRE=Country
TTITLE0=Poetry In Motion
TTITLE1=You Can Never Stop Me Loving You
TTITLE2=Why Do I Love You So
TTITLE3=Send Me The Pillow You Dream On
TTITLE4=It Keeps Right On A-Hurtin'
TTITLE5=Without You
TTITLE6=Out Of My Mind
TTITLE7=Cutie Pie
TTITLE8=Judy Judy Judy
TTITLE9=Princess Princess
TTITLE10=Dreamy Eyes
TTITLE11=Venus
TTITLE12=Donna
TTITLE13=Take Good Care Of Her
TTITLE14=I'm Your Man
TTITLE15=Talk Back Trembling Lips
TTITLE16=Another You
TTITLE17=Worry
TTITLE18=You And Me (Japanese Version)
TTITLE19=Namida-Kun Sayonara (Japanese Vocal)
EXTD=Johnny Tillotson - The Very Best Of Johnny Tillotson (Asian Edition)
EXTT0=
EXTT1=
EXTT2=
EXTT3=
EXTT4=
EXTT5=
EXTT6=
EXTT7=
EXTT8=
EXTT9=
EXTT10=
EXTT11=
EXTT12=
EXTT13=
EXTT14=
EXTT15=
EXTT16=
EXTT17=
EXTT18=
EXTT19=
PLAYORDER=
